{
	"asset":{
		"generator":"Khronos glTF Blender I/O v3.6.27",
		"version":"2.0"
	},
	"extensionsUsed":[
		"KHR_materials_specular"
	],
	"scene":0,
	"scenes":[
		{
			"name":"Scene",
			"nodes":[
				8
			]
		}
	],
	"nodes":[
		{
			"mesh":0,
			"name":"Object_5"
		},
		{
			"mesh":1,
			"name":"Object_6"
		},
		{
			"children":[
				0,
				1
			],
			"name":"soda-can-a_0.001"
		},
		{
			"mesh":2,
			"name":"Object_8"
		},
		{
			"children":[
				3
			],
			"name":"soda-can-b_1",
			"translation":[
				0,
				-0.021261222660541534,
				-11.642282485961914
			]
		},
		{
			"children":[
				2,
				4
			],
			"name":"soda-can-001_2.001",
			"rotation":[
				0.5164076685905457,
				-0.10479801893234253,
				0.09372712671756744,
				0.8447222709655762
			],
			"scale":[
				0.3631342053413391,
				0.3631341755390167,
				0.3631342351436615
			],
			"translation":[
				-0.45033425092697144,
				-1.7962310314178467,
				0.4186819791793823
			]
		},
		{
			"children":[
				5
			],
			"name":"GLTF_SceneRootNode.001",
			"rotation":[
				0.70710688829422,
				0,
				0,
				0.7071066498756409
			]
		},
		{
			"children":[
				6
			],
			"name":"root.001"
		},
		{
			"children":[
				7
			],
			"name":"Sketchfab_model.001",
			"rotation":[
				-0.70710688829422,
				0,
				0,
				0.7071066498756409
			]
		}
	],
	"materials":[
		{
			"doubleSided":true,
			"extensions":{
				"KHR_materials_specular":{
					"specularColorFactor":[
						0.9999999999999999,
						0.9999999999999999,
						0.9999999999999999
					]
				}
			},
			"name":"Metal",
			"pbrMetallicRoughness":{
				"baseColorFactor":[
					0.11673372238874435,
					0.11673372238874435,
					0.11673372238874435,
					1
				],
				"roughnessFactor":0.25790250301361084
			}
		},
		{
			"doubleSided":true,
			"extensions":{
				"KHR_materials_specular":{
					"specularColorTexture":{
						"index":0
					}
				}
			},
			"name":"material_Main",
			"pbrMetallicRoughness":{
				"baseColorTexture":{
					"index":1
				},
				"metallicRoughnessTexture":{
					"index":2
				}
			}
		}
	],
	"meshes":[
		{
			"name":"Object_0.001",
			"primitives":[
				{
					"attributes":{
						"POSITION":0,
						"NORMAL":1,
						"TEXCOORD_0":2
					},
					"indices":3,
					"material":0
				}
			]
		},
		{
			"name":"Object_1",
			"primitives":[
				{
					"attributes":{
						"POSITION":4,
						"NORMAL":5,
						"TEXCOORD_0":6
					},
					"indices":7,
					"material":1
				}
			]
		},
		{
			"name":"Object_2",
			"primitives":[
				{
					"attributes":{
						"POSITION":8,
						"NORMAL":9,
						"TEXCOORD_0":10
					},
					"indices":11,
					"material":0
				}
			]
		}
	],
	"textures":[
		{
			"sampler":0,
			"source":0
		},
		{
			"sampler":0,
			"source":1
		},
		{
			"sampler":0,
			"source":2
		}
	],
	"images":[
		{
			"bufferView":8,
			"mimeType":"image/png",
			"name":"Image"
		},
		{
			"bufferView":9,
			"mimeType":"image/png",
			"name":"material_Main_baseColor"
		},
		{
			"bufferView":10,
			"mimeType":"image/png",
			"name":"material_Main_metallicRoughness"
		}
	],
	"accessors":[
		{
			"bufferView":0,
			"componentType":5126,
			"count":13953,
			"max":[
				2.7070939540863037,
				2.707087278366089,
				-0.0004999160883016884
			],
			"min":[
				-2.7070815563201904,
				-2.707087516784668,
				-12.065336227416992
			],
			"type":"VEC3"
		},
		{
			"bufferView":1,
			"componentType":5126,
			"count":13953,
			"type":"VEC3"
		},
		{
			"bufferView":2,
			"componentType":5126,
			"count":13953,
			"type":"VEC2"
		},
		{
			"bufferView":3,
			"componentType":5123,
			"count":68904,
			"type":"SCALAR"
		},
		{
			"bufferView":4,
			"componentType":5126,
			"count":4157,
			"max":[
				3.162946939468384,
				3.162940263748169,
				-0.4534912407398224
			],
			"min":[
				-3.162933826446533,
				-3.1629414558410645,
				-11.874273300170898
			],
			"type":"VEC3"
		},
		{
			"bufferView":5,
			"componentType":5126,
			"count":4157,
			"type":"VEC3"
		},
		{
			"bufferView":6,
			"componentType":5126,
			"count":4157,
			"type":"VEC2"
		},
		{
			"bufferView":7,
			"componentType":5123,
			"count":23760,
			"type":"SCALAR"
		},
		{
			"bufferView":11,
			"componentType":5126,
			"count":5767,
			"max":[
				0.7886778712272644,
				1.750016212463379,
				0.03762450069189072
			],
			"min":[
				-0.7886649966239929,
				-0.7851152420043945,
				-0.05382504314184189
			],
			"type":"VEC3"
		},
		{
			"bufferView":12,
			"componentType":5126,
			"count":5767,
			"type":"VEC3"
		},
		{
			"bufferView":13,
			"componentType":5126,
			"count":5767,
			"type":"VEC2"
		},
		{
			"bufferView":14,
			"componentType":5123,
			"count":32544,
			"type":"SCALAR"
		}
	],
	"bufferViews":[
		{
			"buffer":0,
			"byteLength":167436,
			"byteOffset":0,
			"target":34962
		},
		{
			"buffer":0,
			"byteLength":167436,
			"byteOffset":167436,
			"target":34962
		},
		{
			"buffer":0,
			"byteLength":111624,
			"byteOffset":334872,
			"target":34962
		},
		{
			"buffer":0,
			"byteLength":137808,
			"byteOffset":446496,
			"target":34963
		},
		{
			"buffer":0,
			"byteLength":49884,
			"byteOffset":584304,
			"target":34962
		},
		{
			"buffer":0,
			"byteLength":49884,
			"byteOffset":634188,
			"target":34962
		},
		{
			"buffer":0,
			"byteLength":33256,
			"byteOffset":684072,
			"target":34962
		},
		{
			"buffer":0,
			"byteLength":47520,
			"byteOffset":717328,
			"target":34963
		},
		{
			"buffer":0,
			"byteLength":26487,
			"byteOffset":764848
		},
		{
			"buffer":0,
			"byteLength":1248437,
			"byteOffset":791336
		},
		{
			"buffer":0,
			"byteLength":135158,
			"byteOffset":2039776
		},
		{
			"buffer":0,
			"byteLength":69204,
			"byteOffset":2174936,
			"target":34962
		},
		{
			"buffer":0,
			"byteLength":69204,
			"byteOffset":2244140,
			"target":34962
		},
		{
			"buffer":0,
			"byteLength":46136,
			"byteOffset":2313344,
			"target":34962
		},
		{
			"buffer":0,
			"byteLength":65088,
			"byteOffset":2359480,
			"target":34963
		}
	],
	"samplers":[
		{
			"magFilter":9729,
			"minFilter":9987
		}
	],
	"buffers":[
		{
			"byteLength":2424568,
			"uri":"data:application/octet-stream;base64,"
		}
	]
}
